<?xml version="1.0" encoding="UTF-8"?>
<!DOCTYPE svg PUBLIC "-//W3C//DTD SVG 1.0//EN" "http://www.w3.org/TR/2001/REC-SVG-20010904/DTD/svg10.dtd">
<!-- Creator: CorelDRAW -->
<svg xmlns="http://www.w3.org/2000/svg" xml:space="preserve" width="124.09mm" height="36.7976mm" version="1.0" style="shape-rendering:geometricPrecision; text-rendering:geometricPrecision; image-rendering:optimizeQuality; fill-rule:evenodd; clip-rule:evenodd"
viewBox="0 0 11703.68 3470.62"
 xmlns:xlink="http://www.w3.org/1999/xlink"
 xmlns:xodm="http://www.corel.com/coreldraw/odm/2003">
 <defs>
  <style type="text/css">
   <![CDATA[
    .str0 {stroke:#2B2A29;stroke-width:18.86;stroke-miterlimit:22.9256}
    .fil3 {fill:#9D9E9E}
    .fil0 {fill:#2B2A29}
    .fil4 {fill:#E53A24}
    .fil2 {fill:#9D9E9E;fill-rule:nonzero}
    .fil1 {fill:#E53A24;fill-rule:nonzero}
   ]]>
  </style>
 </defs>
 <g id="Layer_x0020_1">
  <metadata id="CorelCorpID_0Corel-Layer"/>
  <rect class="fil0 str0" x="9.43" y="9.43" width="11684.82" height="3451.75"/>
  <g id="_2742898644048">
   <path class="fil1" d="M988 1386.87c-15.95,36.33 -56.4,7.38 -39.62,-28 101.28,-213.71 271.24,-376.52 491.98,-468.61 113.64,-47.39 238.56,-73.6 369.7,-73.6 65.57,0 129.58,6.55 191.41,19.03 61.82,12.48 121.48,30.88 178.29,54.57 56.81,23.7 110.79,52.69 161.33,86.37 50.53,33.67 97.59,72.01 140.55,114.39 42.97,42.37 81.85,88.78 115.97,138.62 34.13,49.83 63.54,103.08 87.56,159.11 24.03,56.02 42.7,114.86 55.34,175.83 12.65,60.98 19.3,124.1 19.3,188.77 0,64.65 -6.65,127.8 -19.3,188.76 -12.65,60.97 -31.31,119.79 -55.34,175.82 -24.02,56.03 -53.42,109.28 -87.56,159.11 -34.13,49.84 -73,96.26 -115.97,138.63 -42.95,42.38 -90.02,80.72 -140.55,114.38 -50.52,33.66 -104.93,61.72 -161.33,86.37 -114.98,50.22 -138.88,-91.19 -63.83,-117.15 52.71,-18.22 100.41,-47.75 146.18,-78.24 45.77,-30.51 88.43,-65.25 127.36,-103.64 38.93,-38.4 74.15,-80.47 105.09,-125.61 30.93,-45.16 57.57,-93.4 79.34,-144.16 21.77,-50.77 38.69,-104.07 50.15,-159.31 11.45,-55.25 17.49,-112.45 17.49,-171.04 0,-58.6 -6.04,-115.8 -17.49,-171.05 -11.47,-55.25 -28.38,-108.55 -50.15,-159.31 -21.77,-50.77 -48.41,-99.02 -79.34,-144.18 -30.94,-45.15 -66.15,-87.21 -105.09,-125.6 -38.92,-38.41 -81.57,-73.15 -127.36,-103.65 -45.79,-30.5 -94.71,-56.77 -146.19,-78.24 -51.47,-21.47 -105.51,-38.15 -161.54,-49.45 -14.01,-2.83 -28.14,-5.32 -42.39,-7.46 -14.23,-2.14 -28.6,-3.96 -43.06,-5.39 -14.46,-1.45 -29.04,-2.55 -43.71,-3.28 -14.66,-0.74 -29.42,-1.11 -44.28,-1.11 -118.82,0 -232.02,23.75 -334.97,66.7 -213.16,88.92 -369.5,250.1 -457.97,451.67z"/>
   <path class="fil2" d="M3622.24 1525.5c14.68,-25.91 24.18,-57 24.18,-88.98l0 -19c0,-85.52 -69.96,-155.48 -155.48,-155.48l-279 0 0 583.04 319.59 0c85.53,0 155.48,-69.95 155.48,-155.47l0 -38.01c0,-51.84 -25.9,-98.48 -64.78,-126.11zm-50.1 162.38c0,23.32 -19.01,43.2 -43.19,43.2l-203 0 0 -354.15 162.39 0c24.18,0 43.19,18.99 43.19,43.19l0 32.82c0,24.17 -19,43.19 -43.19,43.19l-116.6 0 34.55 114.89 122.66 0c24.17,0 43.19,18.99 43.19,43.19l0 33.68zm611.54 -231.49c0,-63.91 -50.97,-114.88 -114.88,-114.88l-145.11 0 -57.88 57 0 -201.23 -114.02 0 0 647.81 114.02 0 0 -388.7 180.52 0c12.96,0 22.47,9.51 22.47,22.46l0 366.24 114.88 0 0 -388.7zm399.05 -114.88l0 366.23c0,12.96 -9.49,23.33 -22.45,23.33l-157.19 0c-12.97,0 -23.33,-10.37 -23.33,-23.33l0 -366.23 -114.02 0 0 389.56c0,63.04 50.97,114.01 114.02,114.01l202.97 0c63.91,0 114.88,-50.97 114.88,-114.01l0 -389.56 -114.88 0zm654.73 0l-114.89 0 0 57 -57 -57 -171.9 0c-63.04,0 -114.01,50.97 -114.01,114.88l0 274.69c0,63.04 50.97,114.01 114.01,114.01l159.8 0 34.55 -114.01 -171.01 0c-12.96,0 -23.33,-10.37 -23.33,-23.33l0 -228.9c0,-12.95 10.37,-22.46 23.33,-22.46l205.56 0 0 301.45c0,43.19 -12.07,84.66 -35.41,120.06l-64.78 76.88 81.2 81.2 72.55 -86.38 1.74 -2.59 1.73 -2.59c38,-55.27 57.86,-119.18 57.86,-186.57l0 -416.33zm424.97 0l-228.9 0c-63.05,0 -114.02,50.97 -114.02,114.88l0 274.69c0,63.04 50.97,114.01 114.02,114.01l228.9 0c63.94,0 114.88,-50.97 114.88,-114.01l0 -274.69c0,-63.91 -50.94,-114.88 -114.88,-114.88zm0 366.23c0,12.96 -9.49,23.33 -22.45,23.33l-183.12 0c-12.96,0 -23.33,-10.37 -23.33,-23.33l0 -228.9c0,-12.95 10.37,-22.46 23.33,-22.46l183.12 0c12.96,0 22.45,9.51 22.45,22.46l0 228.9zm310.96 137.34l0 -647.81 -114.02 0 0 647.81 114.02 0zm816.26 -348.96l-263.44 0 34.55 114.89 114.01 0 0 76.87c0,23.32 -19.01,43.2 -43.19,43.2l-159.8 0c-23.32,0 -43.19,-19.88 -43.19,-43.2l0 -267.76c0,-24.2 19.87,-43.19 43.19,-43.19l214.23 0 34.55 -114.89 -250.5 0c-85.52,0 -155.48,69.96 -155.48,155.48l0 272.09c0,85.52 69.96,155.47 155.48,155.47l164.12 0c85.52,0 155.48,-69.95 155.48,-155.47l0 -193.49zm196.07 348.96l0 -583.04 -114.02 0 0 583.04 114.02 0zm557.14 -193.48c0,-85.52 -69.96,-155.48 -155.48,-155.48l-162.38 0c-23.32,0 -43.2,-19.01 -43.2,-43.19l0 -32.82c0,-24.2 19.88,-43.19 43.2,-43.19l240.13 0 34.55 -114.89 -276.41 0c-85.52,0 -155.47,69.96 -155.47,155.48l0 38.01c0,85.52 69.95,155.48 155.47,155.48l161.54 0c24.17,0 43.19,18.99 43.19,43.19l0 33.68c0,23.32 -19.01,43.2 -43.19,43.2l-282.46 0 -34.55 114.01 319.59 0c85.52,0 155.48,-69.95 155.48,-155.47l0 -38.01zm794.66 -137.35l0 2.59 0 0c0,-0.86 0,-1.73 0,-2.59zm0 -99.32l0 2.59c0,-0.86 0,-1.73 0,-2.59l0 0zm0 2.59c0,-0.86 0,-1.73 0,-2.59 -1.74,-84.65 -70.83,-152.89 -155.48,-152.89l-319.6 0 0 583.04 114.02 0 0 -468.16 202.99 0c24.17,0 43.19,18.99 43.19,43.19l0 91.54c0,24.2 -19.01,43.2 -43.19,43.2l-123.53 0 -34.55 114.88 160.67 0c84.65,0 153.75,-68.23 155.48,-152.89 0,-0.86 0,-1.73 0,-2.59l0 -96.73zm394.74 -76.01l-109.7 385.24 -109.69 -385.24 -127.85 0 151.16 503.57 172.76 0 151.14 -503.57 -127.83 0zm316.99 389.56c-12.97,0 -23.33,-10.37 -23.33,-23.33l0 -251.35 126.98 0 34.55 -114.88 -161.53 0 0 -114.02 -114.02 0 0 503.58c0,63.04 50.97,114.01 114.02,114.01l161.53 0 0 -114.01 -138.19 0zm207.29 0l0 114.01 114.02 0 0 -114.01 -114.02 0zm823.17 114.01l-34.55 -114.01 -176.22 0c-23.32,0 -43.19,-19.88 -43.19,-43.2l0 -425.84 -114.02 0 0 427.57c0,85.52 69.96,155.47 155.48,155.47l212.49 0zm180.54 -114.01c-12.96,0 -23.33,-10.37 -23.33,-23.33l0 -251.35 126.98 0 34.55 -114.88 -161.53 0 0 -114.02 -114.02 0 0 503.58c0,63.04 50.98,114.01 114.02,114.01l161.53 0 0 -114.01 -138.19 0zm665.09 -533.8l-114.89 0 0 533.8 -205.56 0c-12.96,0 -23.33,-10.37 -23.33,-23.33l0 -228.9c0,-12.95 10.37,-22.46 23.33,-22.46l171.01 0 -34.55 -114.88 -159.8 0c-63.05,0 -114.02,50.97 -114.02,114.88l0 274.69c0,63.04 50.97,114.01 114.02,114.01l171.9 0 57 -57.01 0 57.01 114.89 0 0 -647.81zm82.06 533.8l0 114.01 114.02 0 0 -114.01 -114.02 0z"/>
   <path class="fil1" d="M6436.98 2060.08l-3.12 26.86c-6.78,-3.27 -13.71,-5.73 -20.88,-7.36 -7.17,-1.65 -14.66,-2.42 -22.49,-2.42 -13.26,0 -23.63,2.46 -31.05,7.41 -7.48,4.9 -11.21,11.69 -11.21,20.33 0,6.79 2.53,12.94 7.53,18.49 5.06,5.56 15.89,12.9 32.52,22.05 21.69,11.95 36.7,22.81 44.92,32.54 8.22,9.78 12.31,20.96 12.31,33.47 0,18.64 -6.79,33.92 -20.43,45.88 -13.63,11.95 -31.11,17.89 -52.48,17.89 -10.37,0 -20.33,-0.84 -29.75,-2.46 -9.49,-1.69 -18.32,-4.11 -26.54,-7.34l3.1 -29.36c9.06,4.72 17.81,8.2 26.22,10.47 8.43,2.25 16.66,3.41 24.64,3.41 12.86,0 23.16,-2.89 31,-8.64 7.8,-5.77 11.7,-13.36 11.7,-22.85 0,-14.73 -15.37,-30.83 -46.12,-48.31 -5.1,-2.9 -9.01,-5.17 -11.7,-6.81 -11.68,-6.79 -20.89,-15.05 -27.57,-24.79 -6.71,-9.8 -10.02,-19.8 -10.02,-30.06 0,-17.05 6.54,-30.59 19.54,-40.64 13.01,-10.02 30.69,-15.01 53.12,-15.01 8.31,0 16.42,0.57 24.22,1.79 7.84,1.2 15.33,3.06 22.53,5.45zm81.13 187.93l0 91.65 -29.38 0 0 -224.6 26.58 0 0 30.69c6.16,-11.15 14.06,-19.73 23.59,-25.64 9.59,-5.89 20.38,-8.85 32.44,-8.85 19.41,0 35.15,7.31 47.17,22 12.06,14.65 18.04,33.96 18.04,57.93 0,25.9 -6.05,46.54 -18.2,61.91 -12.1,15.36 -28.28,23.06 -48.44,23.06 -11.16,0 -21.16,-2.39 -29.89,-7.11 -8.75,-4.73 -16.06,-11.73 -21.91,-21.05zm87.51 -54.91c0,-18.07 -3.8,-32.28 -11.33,-42.67 -7.55,-10.31 -17.91,-15.47 -31.07,-15.47 -13.53,0 -24.43,5.31 -32.69,15.96 -8.26,10.62 -12.42,24.79 -12.42,42.49 0,18.43 3.99,32.94 11.96,43.64 7.94,10.69 18.57,16.06 31.95,16.06 13.36,0 23.95,-5.38 31.78,-16.11 7.84,-10.75 11.81,-25.38 11.81,-43.9zm141.18 2.19c-17.41,0 -30.79,2.8 -40.05,8.33 -9.28,5.58 -13.91,13.53 -13.91,23.9 0,7.95 2.63,14.42 7.9,19.54 5.27,5.1 12.1,7.63 20.53,7.63 13.25,0 23.9,-4.32 31.89,-12.96 8.01,-8.62 12.02,-20.22 12.02,-34.7l0 -11.74 -18.38 0zm47.76 -18.04l0 96.39 -27.16 0 0 -26.53c-6.11,9.7 -13.64,16.9 -22.6,21.65 -9.01,4.74 -19.37,7.1 -31.22,7.1 -14.95,0 -27.07,-4.32 -36.27,-12.96 -9.21,-8.62 -13.86,-19.9 -13.86,-33.79 0,-17.26 7.02,-30.48 20.98,-39.65 13.93,-9.15 34.1,-13.74 60.37,-13.74l20.38 0 0 -3.1c0,-12.31 -3.41,-21.96 -10.26,-28.85 -6.89,-6.89 -16.38,-10.37 -28.44,-10.37 -6.86,0 -13.89,1.12 -21.21,3.33 -7.27,2.2 -14.8,5.53 -22.53,9.95l-0.31 -24c7.94,-3.8 16.25,-6.64 24.99,-8.54 8.75,-1.91 18.11,-2.85 28.06,-2.85 19.65,0 34.38,5.48 44.29,16.49 9.84,11 14.79,27.48 14.79,49.49zm91.23 -111.15l0 48.97 37.96 0 0 22.43 -37.96 0 0 82.19c0,12.31 1.79,21.1 5.42,26.27 3.58,5.21 9.48,7.8 17.68,7.8 2.07,0 4.42,-0.27 7.12,-0.85 2.68,-0.58 5.67,-1.47 8.94,-2.68l0.31 23.17c-3.9,1.03 -7.84,1.76 -11.78,2.29 -4.01,0.53 -8.01,0.8 -12.17,0.8 -16.06,0 -27.52,-4.15 -34.48,-12.43 -6.96,-8.31 -10.43,-22.15 -10.43,-41.59l0 -84.97 -31.9 0 0 -22.43 32.84 0 0 -39.12 28.44 -9.85zm72.07 48.97l29.39 0 0 158.57 -29.39 0 0 -158.57zm0 -72.66l29.39 0 0 29.39 -29.39 0 0 -29.39zm150.32 152.89c-17.41,0 -30.8,2.8 -40.06,8.33 -9.27,5.58 -13.91,13.53 -13.91,23.9 0,7.95 2.64,14.42 7.9,19.54 5.27,5.1 12.1,7.63 20.53,7.63 13.26,0 23.91,-4.32 31.9,-12.96 8.01,-8.62 12.01,-20.22 12.01,-34.7l0 -11.74 -18.37 0zm47.76 -18.04l0 96.39 -27.17 0 0 -26.53c-6.11,9.7 -13.64,16.9 -22.6,21.65 -9,4.74 -19.37,7.1 -31.22,7.1 -14.94,0 -27.06,-4.32 -36.27,-12.96 -9.21,-8.62 -13.85,-19.9 -13.85,-33.79 0,-17.26 7.02,-30.48 20.97,-39.65 13.94,-9.15 34.11,-13.74 60.37,-13.74l20.38 0 0 -3.1c0,-12.31 -3.41,-21.96 -10.26,-28.85 -6.89,-6.89 -16.37,-10.37 -28.44,-10.37 -6.85,0 -13.89,1.12 -21.2,3.33 -7.27,2.2 -14.8,5.53 -22.53,9.95l-0.32 -24c7.95,-3.8 16.25,-6.64 25,-8.54 8.74,-1.91 18.11,-2.85 28.05,-2.85 19.65,0 34.39,5.48 44.29,16.49 9.85,11 14.8,27.48 14.8,49.49zm47.64 -139.59l29.38 0 0 235.98 -29.38 0 0 -235.98zm172.21 16.76l30.63 0 0 96.23 90.76 -96.23 36.91 0 -98.65 102.3 106.8 116.92 -39.52 0 -96.31 -107.08 0 107.08 -30.63 0 0 -219.22zm321.84 123.46l0 95.76 -29.38 0 0 -89.14c0,-16.25 -2.9,-28.31 -8.65,-36.15 -5.73,-7.87 -14.63,-11.81 -26.68,-11.81 -13.16,0 -23.48,4.96 -31.05,14.91 -7.55,9.88 -11.32,23.69 -11.32,41.38l0 80.81 -29.39 0 0 -158.57 26.9 0 0 29.32c5.84,-10.94 13.43,-19.27 22.64,-24.79 9.28,-5.53 20.11,-8.33 32.55,-8.33 17.84,0 31.36,5.63 40.57,16.95 9.21,11.32 13.81,27.86 13.81,49.66zm115.56 -44.18c-14.1,0 -25.53,5.52 -34.27,16.59 -8.75,11.04 -13.11,25.63 -13.11,43.75 0,17.9 4.36,32.38 13.11,43.42 8.74,11.07 20.17,16.59 34.27,16.59 14.31,0 25.8,-5.48 34.42,-16.37 8.65,-10.9 12.97,-25.43 12.97,-43.64 0,-18.34 -4.32,-32.96 -12.97,-43.92 -8.62,-10.94 -20.11,-16.42 -34.42,-16.42zm-0.32 -22.43c24.37,0 43.59,7.42 57.59,22.28 14.06,14.85 21.06,35.12 21.06,60.82 0,25.47 -7.05,45.68 -21.21,60.65 -14.12,14.94 -33.27,22.43 -57.44,22.43 -24.17,0 -43.27,-7.49 -57.29,-22.39 -14.04,-14.9 -21.06,-35.11 -21.06,-60.68 0,-25.69 7.02,-45.97 21.06,-60.82 14.02,-14.85 33.11,-22.28 57.29,-22.28zm97.87 3.79l31.68 0 33.49 120.47c0.11,0.53 0.53,3.09 1.16,7.77 0.68,4.71 1.31,9.01 1.94,12.9 1.01,-7.31 1.74,-12.27 2.17,-14.9 0.42,-2.61 0.78,-4.25 1.06,-5l35.64 -121.24 36.32 0 35.33 120.3c0.25,0.84 0.77,3.16 1.41,6.95 0.7,3.8 1.33,8.43 1.96,13.89 0.53,-5.06 0.99,-9.15 1.52,-12.41 0.53,-3.23 1.12,-5.84 1.75,-7.8l35.26 -120.93 28.85 0 -51.81 158.57 -33.49 0 -37.27 -125.71c-0.53,-1.54 -0.99,-3.9 -1.47,-7.02 -0.42,-3.14 -0.89,-7.1 -1.31,-11.78 -0.48,4 -1.06,7.73 -1.58,11.25 -0.59,3.48 -1.12,6.22 -1.65,8.18l-37.26 125.08 -33.47 0 -50.23 -158.57zm275.78 -77.41l29.38 0 0 235.98 -29.38 0 0 -235.98zm209.12 151.64l0 12 -112.28 0c1.16,16.95 6.57,30.16 16.25,39.58 9.73,9.45 22.91,14.13 39.43,14.13 7.32,0 14.55,-0.95 21.76,-2.85 7.21,-1.9 14.58,-4.85 22.22,-8.86l0 25.24c-7,2.94 -14.66,5.14 -22.92,6.68 -8.26,1.47 -17.36,2.22 -27.31,2.22 -24.08,0 -43.03,-7.59 -56.92,-22.75 -13.85,-15.16 -20.8,-35.81 -20.8,-61.86 0,-24.48 6.8,-44.16 20.42,-59.13 13.6,-14.95 31.45,-22.43 53.39,-22.43 20.81,0 37.06,6.95 48.97,20.81 11.85,13.88 17.79,32.94 17.79,57.22zm-27.48 -7.58c-1.06,-15.85 -5.1,-28.06 -12.2,-36.53 -7.1,-8.48 -16.63,-12.75 -28.59,-12.75 -11.8,0 -21.58,4.42 -29.34,13.21 -7.73,8.79 -12.35,20.81 -13.89,36.07l84.03 0zm122.57 -47.71c-12.65,0 -22.75,5.38 -30.33,16.11 -7.53,10.75 -11.32,25.27 -11.32,43.61 0,18.11 3.84,32.42 11.47,42.96 7.69,10.52 17.96,15.79 30.81,15.79 13.36,0 24.15,-5.38 32.31,-16.06 8.16,-10.7 12.27,-24.9 12.27,-42.69 0,-18.66 -4.05,-33.22 -12.1,-43.83 -8.05,-10.58 -19.12,-15.89 -33.11,-15.89zm45.22 -96.35l29.38 0 0 235.98 -26.75 0 0 -32.27c-6.15,11.53 -13.89,20.21 -23.2,26.05 -9.34,5.86 -20.14,8.75 -32.51,8.75 -18.78,0 -34.27,-7.85 -46.48,-23.59 -12.16,-15.75 -18.27,-35.96 -18.27,-60.65 0,-24.39 6.01,-43.9 17.96,-58.6 12.02,-14.69 27.8,-22.07 47.42,-22.07 11.43,0 21.54,2.42 30.4,7.31 8.84,4.85 16.21,12.12 22.05,21.76l0 -102.68zm143.42 96.67c-12.53,0 -22.6,5.21 -30.08,15.57 -7.53,10.44 -11.25,24.49 -11.25,42.29 0,17.74 3.79,31.74 11.42,42.18 7.58,10.37 17.68,15.57 30.23,15.57 13.01,0 23.48,-5.21 31.53,-15.68 8.05,-10.44 12.1,-24.12 12.1,-41.13 0,-18.42 -3.9,-32.79 -11.68,-43.23 -7.84,-10.37 -18.59,-15.57 -32.28,-15.57zm46.97 9.1l0 -28.37 27.95 0 0 140.58c0,29.07 -6.57,50.86 -19.79,65.39 -13.22,14.52 -32.97,21.79 -59.19,21.79 -9.36,0 -18.57,-0.84 -27.63,-2.53 -9,-1.69 -17.53,-4.11 -25.42,-7.27l2.15 -26.51c8.26,4.3 16.27,7.53 24,9.68 7.8,2.17 15.12,3.26 21.9,3.26 17.37,0 30.86,-5.1 40.33,-15.33 9.53,-10.21 14.27,-24.68 14.27,-43.38l0 -18.96c-6.33,10.53 -13.89,18.49 -22.75,23.84 -8.85,5.34 -18.8,8.01 -29.74,8.01 -19.44,0 -35.18,-7.31 -47.21,-21.96 -12.06,-14.68 -18.14,-33.96 -18.14,-57.91 0,-25.16 6.01,-45.22 17.97,-60.12 11.95,-14.9 27.84,-22.38 47.7,-22.38 12.06,0 22.53,2.7 31.49,8.05 8.94,5.43 16.32,13.42 22.12,24.11zm207 45.87l0 12 -112.29 0c1.16,16.95 6.57,30.16 16.25,39.58 9.74,9.45 22.92,14.13 39.44,14.13 7.31,0 14.54,-0.95 21.75,-2.85 7.22,-1.9 14.59,-4.85 22.22,-8.86l0 25.24c-7,2.94 -14.65,5.14 -22.91,6.68 -8.27,1.47 -17.37,2.22 -27.32,2.22 -24.07,0 -43.02,-7.59 -56.91,-22.75 -13.86,-15.16 -20.81,-35.81 -20.81,-61.86 0,-24.48 6.81,-44.16 20.43,-59.13 13.59,-14.95 31.45,-22.43 53.39,-22.43 20.8,0 37.06,6.95 48.96,20.81 11.85,13.88 17.8,32.94 17.8,57.22zm-27.49 -7.58c-1.05,-15.85 -5.1,-28.06 -12.2,-36.53 -7.1,-8.48 -16.63,-12.75 -28.58,-12.75 -11.81,0 -21.59,4.42 -29.34,13.21 -7.74,8.79 -12.36,20.81 -13.89,36.07l84.02 0zm152.99 -127.3l46.44 0 64.8 170.01c1.54,4.08 2.74,8.52 3.65,13.21 0.84,4.68 1.41,9.57 1.73,14.73 0.74,-6.68 1.54,-12.53 2.42,-17.47 0.84,-4.91 1.73,-8.58 2.68,-10.97l67.22 -169.51 45.74 0 0 219.22 -29.68 0 0 -172.15c0,-5.38 0.21,-10.86 0.63,-16.55 0.36,-5.62 1.06,-11.53 2,-17.58 -1.37,5.8 -2.8,11.21 -4.32,16.28 -1.58,5.1 -3.23,9.73 -4.95,13.95l-69.37 176.05 -27.17 0 -69.22 -178.79c-1.06,-2.68 -2.18,-6.33 -3.42,-10.9 -1.22,-4.57 -2.53,-9.9 -3.86,-15.95 0.64,9.94 1.06,17.79 1.38,23.44 0.31,5.67 0.48,9.21 0.48,10.62l0 171.58 -27.17 0 0 -219.22zm357.82 140.87c-17.41,0 -30.79,2.8 -40.05,8.33 -9.28,5.58 -13.91,13.53 -13.91,23.9 0,7.95 2.63,14.42 7.9,19.54 5.27,5.1 12.1,7.63 20.53,7.63 13.25,0 23.9,-4.32 31.89,-12.96 8.01,-8.62 12.02,-20.22 12.02,-34.7l0 -11.74 -18.38 0zm47.76 -18.04l0 96.39 -27.16 0 0 -26.53c-6.11,9.7 -13.64,16.9 -22.6,21.65 -9,4.74 -19.37,7.1 -31.22,7.1 -14.95,0 -27.07,-4.32 -36.27,-12.96 -9.21,-8.62 -13.86,-19.9 -13.86,-33.79 0,-17.26 7.03,-30.48 20.98,-39.65 13.93,-9.15 34.1,-13.74 60.37,-13.74l20.38 0 0 -3.1c0,-12.31 -3.41,-21.96 -10.26,-28.85 -6.89,-6.89 -16.38,-10.37 -28.44,-10.37 -6.86,0 -13.89,1.12 -21.21,3.33 -7.27,2.2 -14.8,5.53 -22.53,9.95l-0.31 -24c7.94,-3.8 16.25,-6.64 24.99,-8.54 8.75,-1.91 18.11,-2.85 28.06,-2.85 19.65,0 34.38,5.48 44.29,16.49 9.84,11 14.79,27.48 14.79,49.49zm185.69 0.63l0 95.76 -29.39 0 0 -89.14c0,-16.25 -2.89,-28.31 -8.64,-36.15 -5.73,-7.87 -14.63,-11.81 -26.68,-11.81 -13.16,0 -23.48,4.96 -31.05,14.91 -7.55,9.88 -11.32,23.69 -11.32,41.38l0 80.81 -29.39 0 0 -158.57 26.9 0 0 29.32c5.84,-10.94 13.42,-19.27 22.64,-24.79 9.27,-5.53 20.11,-8.33 32.55,-8.33 17.84,0 31.36,5.63 40.57,16.95 9.21,11.32 13.81,27.86 13.81,49.66zm118.65 17.41c-17.41,0 -30.79,2.8 -40.05,8.33 -9.27,5.58 -13.91,13.53 -13.91,23.9 0,7.95 2.63,14.42 7.9,19.54 5.27,5.1 12.1,7.63 20.53,7.63 13.26,0 23.9,-4.32 31.89,-12.96 8.02,-8.62 12.02,-20.22 12.02,-34.7l0 -11.74 -18.38 0zm47.77 -18.04l0 96.39 -27.17 0 0 -26.53c-6.11,9.7 -13.64,16.9 -22.6,21.65 -9,4.74 -19.37,7.1 -31.22,7.1 -14.94,0 -27.07,-4.32 -36.27,-12.96 -9.21,-8.62 -13.86,-19.9 -13.86,-33.79 0,-17.26 7.03,-30.48 20.98,-39.65 13.93,-9.15 34.1,-13.74 60.37,-13.74l20.38 0 0 -3.1c0,-12.31 -3.41,-21.96 -10.26,-28.85 -6.89,-6.89 -16.38,-10.37 -28.44,-10.37 -6.86,0 -13.89,1.12 -21.2,3.33 -7.28,2.2 -14.8,5.53 -22.54,9.95l-0.31 -24c7.94,-3.8 16.25,-6.64 24.99,-8.54 8.75,-1.91 18.11,-2.85 28.06,-2.85 19.65,0 34.38,5.48 44.29,16.49 9.84,11 14.8,27.48 14.8,49.49zm110.77 -42.91c-12.54,0 -22.6,5.21 -30.08,15.57 -7.53,10.44 -11.26,24.49 -11.26,42.29 0,17.74 3.8,31.74 11.43,42.18 7.58,10.37 17.68,15.57 30.23,15.57 13.01,0 23.48,-5.21 31.53,-15.68 8.05,-10.44 12.1,-24.12 12.1,-41.13 0,-18.42 -3.9,-32.79 -11.68,-43.23 -7.85,-10.37 -18.59,-15.57 -32.28,-15.57zm46.97 9.1l0 -28.37 27.95 0 0 140.58c0,29.07 -6.57,50.86 -19.8,65.39 -13.21,14.52 -32.96,21.79 -59.18,21.79 -9.36,0 -18.57,-0.84 -27.63,-2.53 -9,-1.69 -17.54,-4.11 -25.42,-7.27l2.14 -26.51c8.27,4.3 16.28,7.53 24.01,9.68 7.8,2.17 15.11,3.26 21.9,3.26 17.37,0 30.86,-5.1 40.33,-15.33 9.53,-10.21 14.27,-24.68 14.27,-43.38l0 -18.96c-6.33,10.53 -13.89,18.49 -22.75,23.84 -8.86,5.34 -18.8,8.01 -29.74,8.01 -19.44,0 -35.18,-7.31 -47.22,-21.96 -12.05,-14.68 -18.13,-33.96 -18.13,-57.91 0,-25.16 6.01,-45.22 17.97,-60.12 11.95,-14.9 27.84,-22.38 47.7,-22.38 12.06,0 22.53,2.7 31.49,8.05 8.94,5.43 16.32,13.42 22.12,24.11zm207 45.87l0 12 -112.29 0c1.16,16.95 6.57,30.16 16.25,39.58 9.74,9.45 22.92,14.13 39.44,14.13 7.31,0 14.54,-0.95 21.75,-2.85 7.22,-1.9 14.59,-4.85 22.22,-8.86l0 25.24c-7,2.94 -14.65,5.14 -22.92,6.68 -8.26,1.47 -17.36,2.22 -27.31,2.22 -24.07,0 -43.03,-7.59 -56.91,-22.75 -13.86,-15.16 -20.81,-35.81 -20.81,-61.86 0,-24.48 6.81,-44.16 20.42,-59.13 13.6,-14.95 31.45,-22.43 53.4,-22.43 20.8,0 37.05,6.95 48.96,20.81 11.85,13.88 17.8,32.94 17.8,57.22zm-27.49 -7.58c-1.06,-15.85 -5.1,-28.06 -12.2,-36.53 -7.1,-8.48 -16.63,-12.75 -28.58,-12.75 -11.81,0 -21.59,4.42 -29.34,13.21 -7.74,8.79 -12.36,20.81 -13.89,36.07l84.02 0zm187.33 -35.59c5.84,-11.32 13.32,-19.89 22.43,-25.76 9.1,-5.84 19.51,-8.79 31.26,-8.79 16.55,0 29.17,5.63 37.86,16.95 8.69,11.32 13.07,27.77 13.07,49.35l0 95.76 -29.39 0 0 -89.14c0,-15.89 -2.53,-27.74 -7.53,-35.42 -5.06,-7.75 -12.79,-11.59 -23.16,-11.59 -12.75,0 -22.7,4.9 -29.91,14.63 -7.21,9.8 -10.79,23.33 -10.79,40.71l0 80.81 -29.39 0 0 -89.14c0,-16.52 -2.53,-28.52 -7.53,-35.9 -4.99,-7.42 -13.11,-11.11 -24.26,-11.11 -11.74,0 -21.23,5 -28.44,14.95 -7.21,9.95 -10.84,23.44 -10.84,40.39l0 80.81 -29.38 0 0 -158.57 27.17 0 0 29.39c5.62,-10.7 12.94,-18.84 21.83,-24.44 8.89,-5.62 19.05,-8.43 30.44,-8.43 11.04,0 20.53,2.95 28.48,8.86 7.94,5.94 13.95,14.48 18.06,25.69zm281.76 43.17l0 12 -112.28 0c1.16,16.95 6.57,30.16 16.25,39.58 9.73,9.45 22.91,14.13 39.43,14.13 7.32,0 14.54,-0.95 21.76,-2.85 7.21,-1.9 14.58,-4.85 22.21,-8.86l0 25.24c-7,2.94 -14.65,5.14 -22.91,6.68 -8.26,1.47 -17.37,2.22 -27.31,2.22 -24.08,0 -43.03,-7.59 -56.92,-22.75 -13.85,-15.16 -20.81,-35.81 -20.81,-61.86 0,-24.48 6.81,-44.16 20.43,-59.13 13.6,-14.95 31.45,-22.43 53.39,-22.43 20.81,0 37.06,6.95 48.97,20.81 11.85,13.88 17.79,32.94 17.79,57.22zm-27.48 -7.58c-1.06,-15.85 -5.1,-28.06 -12.2,-36.53 -7.1,-8.48 -16.64,-12.75 -28.59,-12.75 -11.8,0 -21.58,4.42 -29.34,13.21 -7.73,8.79 -12.35,20.81 -13.89,36.07l84.03 0zm197.8 -3.84l0 95.76 -29.38 0 0 -89.14c0,-16.25 -2.89,-28.31 -8.64,-36.15 -5.73,-7.87 -14.64,-11.81 -26.69,-11.81 -13.16,0 -23.48,4.96 -31.05,14.91 -7.55,9.88 -11.32,23.69 -11.32,41.38l0 80.81 -29.39 0 0 -158.57 26.9 0 0 29.32c5.84,-10.94 13.43,-19.27 22.64,-24.79 9.28,-5.53 20.12,-8.33 32.55,-8.33 17.84,0 31.37,5.63 40.57,16.95 9.21,11.32 13.81,27.86 13.81,49.66zm90.92 -111.78l0 48.97 37.96 0 0 22.43 -37.96 0 0 82.19c0,12.31 1.78,21.1 5.41,26.27 3.58,5.21 9.49,7.8 17.68,7.8 2.07,0 4.42,-0.27 7.12,-0.85 2.68,-0.58 5.68,-1.47 8.94,-2.68l0.32 23.17c-3.9,1.03 -7.85,1.76 -11.79,2.29 -4,0.53 -8.01,0.8 -12.16,0.8 -16.06,0 -27.53,-4.15 -34.49,-12.43 -6.95,-8.31 -10.43,-22.15 -10.43,-41.59l0 -84.97 -31.89 0 0 -22.43 32.84 0 0 -39.12 28.44 -9.85z"/>
   <path class="fil1" d="M2791.15 2193.44c19.89,-45.3 70.31,-9.21 49.41,34.91 -126.27,266.43 -338.18,469.41 -613.37,584.21 -141.66,59.09 -297.42,91.77 -460.91,91.77 -81.74,0 -161.54,-8.17 -238.62,-23.72 -77.07,-15.55 -151.44,-38.5 -222.26,-68.05 -70.83,-29.53 -138.13,-65.68 -201.13,-107.65 -62.99,-41.99 -121.67,-89.79 -175.23,-142.61 -53.56,-52.83 -102.03,-110.69 -144.59,-172.82 -42.55,-62.13 -79.21,-128.52 -109.16,-198.37 -29.95,-69.85 -53.22,-143.2 -68.99,-219.21 -15.77,-76.02 -24.06,-154.73 -24.06,-235.35 0,-80.61 8.29,-159.32 24.06,-235.33 15.77,-76 39.04,-149.35 68.99,-219.19 29.95,-69.85 66.61,-136.24 109.16,-198.37 42.56,-62.13 91.02,-120 144.59,-172.83 53.55,-52.82 112.24,-100.62 175.22,-142.59 62.98,-41.96 130.82,-76.95 201.14,-107.67 143.34,-62.61 173.14,113.7 79.57,146.05 -65.72,22.71 -125.18,59.53 -182.24,97.55 -57.07,38.03 -110.25,81.34 -158.78,129.2 -48.54,47.87 -92.45,100.32 -131.01,156.6 -38.56,56.3 -71.77,116.44 -98.92,179.73 -27.14,63.29 -48.22,129.74 -62.51,198.61 -14.28,68.88 -21.8,140.19 -21.8,213.24 0,73.05 7.52,144.36 21.8,213.24 14.29,68.88 35.37,135.33 62.51,198.62 27.14,63.29 60.36,123.45 98.92,179.75 38.56,56.28 82.47,108.73 131.01,156.59 48.54,47.87 101.7,91.19 158.78,129.2 57.08,38.03 118.07,70.78 182.25,97.55 64.16,26.77 131.54,47.56 201.38,61.65 17.46,3.53 35.09,6.63 52.84,9.31 17.75,2.66 35.65,4.93 53.68,6.72 18.03,1.8 36.2,3.18 54.49,4.08 18.27,0.91 36.68,1.39 55.21,1.39 148.12,0 289.25,-29.62 417.6,-83.16 265.75,-110.85 460.66,-311.79 570.94,-563.09z"/>
   <path class="fil3" d="M3284.61 2114.99l0.01 0c3.75,0 7.42,0.26 11.02,0.77l2663.5 52.42c18.67,0.37 19.44,28.54 0,28.92l-2663.5 52.22c-3.59,0.52 -7.26,0.77 -11.02,0.77l-0.01 0c-40.13,0 -72.68,-30.25 -72.68,-67.55 0,-37.31 32.55,-67.56 72.68,-67.56z"/>
   <path class="fil1" d="M2717.25 1786.98c0,-10.89 8.84,-19.73 19.73,-19.73 10.89,0 19.73,8.84 19.73,19.73 0,279.76 -116.52,533.06 -304.9,716.4 -188.24,183.22 -448.22,296.54 -735.3,296.54 -287.08,0 -547.07,-113.32 -735.31,-296.54 -188.38,-183.34 -304.9,-436.64 -304.9,-716.4 0,-10.89 8.84,-19.73 19.73,-19.73 10.89,0 19.73,8.84 19.73,19.73 0,268.75 111.93,512.08 292.88,688.2 181.09,176.26 431.36,285.28 707.86,285.28 276.5,0 526.77,-109.02 707.85,-285.28 180.96,-176.12 292.88,-419.44 292.88,-688.2z"/>
   <path class="fil2" d="M2001.48 1537.85l98.22 153.82 134.53 56.92 -7.21 -113.54 216.1 -85.24 6.48 16.57 -204.01 80.48 8.21 129.29 -153.43 -64.92 -35.34 185.58 108.56 68.09 -9.47 15.04 -118.82 -74.53 39.01 -204.86 -96.39 -150.94 -133.76 48.81 -175.74 199.43 -151.86 -125.88 -236.19 -80.6 -151.55 142.3 -5.44 92.64 121.83 274.12 169.02 189.44 156.8 -119.93 10.79 14.14 -146.39 111.97 204.29 27.93 -2.37 17.62 -225.46 -30.83 -5.47 -2.89 -175.36 -196.56 -1.46 -2.33 -123.33 -277.51 -0.76 -4.11 5.77 -98.28 2.78 -5.95 161.94 -152.05 243.92 83.23 155.24 -95.67 -100.11 -202.04 -91.2 -5.47 -4.56 -1.6 -173.44 -121.4 10.17 -14.55 171.36 119.96 89.68 5.38 70.39 -75.94 13.03 12.12 -69.05 74.5 101.3 204.45 145.48 27.62 136.53 -49.82 112.23 -289.14 16.58 6.4 -112.08 288.74zm-303.03 33.47l-152.23 93.81 130.27 107.99 155.48 -176.45 -133.52 -25.35z"/>
   <path class="fil3" d="M1590.74 1307.31c22.49,0 40.74,18.24 40.74,40.73 0,22.49 -18.24,40.74 -40.74,40.74 -22.49,0 -40.73,-18.24 -40.73,-40.74 0,-22.49 18.23,-40.73 40.73,-40.73z"/>
   <path class="fil3" d="M1320.95 1180.11c22.49,0 40.74,18.24 40.74,40.74 0,22.49 -18.24,40.74 -40.74,40.74 -22.49,0 -40.73,-18.24 -40.73,-40.74 0,-22.49 18.23,-40.74 40.73,-40.74z"/>
   <path class="fil3" d="M1648.56 2292.05c22.49,0 40.73,18.23 40.73,40.74 0,22.49 -18.24,40.73 -40.73,40.73 -22.5,0 -40.74,-18.24 -40.74,-40.73 0,-22.5 18.23,-40.74 40.74,-40.74z"/>
   <path class="fil3" d="M1247.72 2064.65c22.49,0 40.74,18.24 40.74,40.74 0,22.49 -18.24,40.73 -40.74,40.73 -22.49,0 -40.73,-18.24 -40.73,-40.73 0,-22.49 18.24,-40.74 40.73,-40.74z"/>
   <path class="fil3" d="M2105.26 1205.17c22.49,0 40.74,18.24 40.74,40.73 0,22.49 -18.24,40.74 -40.74,40.74 -22.49,0 -40.73,-18.24 -40.73,-40.74 0,-22.49 18.23,-40.73 40.73,-40.73z"/>
   <path class="fil3" d="M1531 1623.35c22.49,0 40.73,18.24 40.73,40.73 0,22.49 -18.23,40.74 -40.73,40.74 -22.49,0 -40.73,-18.24 -40.73,-40.74 0,-22.49 18.23,-40.73 40.73,-40.73z"/>
   <path class="fil3" d="M1423.08 2261.22c22.49,0 40.74,18.24 40.74,40.73 0,22.5 -18.24,40.74 -40.74,40.74 -22.49,0 -40.73,-18.23 -40.73,-40.74 0,-22.49 18.24,-40.73 40.73,-40.73z"/>
   <path class="fil3" d="M1848.97 1550.12c22.49,0 40.73,18.24 40.73,40.73 0,22.49 -18.23,40.74 -40.73,40.74 -22.49,0 -40.74,-18.24 -40.74,-40.74 0,-22.49 18.24,-40.73 40.74,-40.73z"/>
   <path class="fil3" d="M2168.86 1931.68c22.49,0 40.73,18.24 40.73,40.73 0,22.49 -18.23,40.74 -40.73,40.74 -22.49,0 -40.74,-18.24 -40.74,-40.74 0,-22.49 18.24,-40.73 40.74,-40.73z"/>
   <path class="fil3" d="M2244.02 1721.63c22.49,0 40.73,18.24 40.73,40.73 0,22.49 -18.24,40.74 -40.73,40.74 -22.5,0 -40.74,-18.24 -40.74,-40.74 0,-22.49 18.23,-40.73 40.74,-40.73z"/>
   <path class="fil3" d="M2236.31 1600.22c22.49,0 40.74,18.24 40.74,40.74 0,22.49 -18.24,40.73 -40.74,40.73 -22.49,0 -40.73,-18.23 -40.73,-40.73 0,-22.49 18.23,-40.74 40.73,-40.74z"/>
   <path class="fil3" d="M2446.36 1517.36c22.49,0 40.73,18.23 40.73,40.73 0,22.49 -18.23,40.74 -40.73,40.74 -22.49,0 -40.73,-18.24 -40.73,-40.74 0,-22.49 18.23,-40.73 40.73,-40.73z"/>
   <path class="fil3" d="M1127.37 1676.46c22.49,0 40.73,18.24 40.73,40.74 0,22.49 -18.24,40.73 -40.73,40.73 -22.5,0 -40.74,-18.23 -40.74,-40.73 0,-22.49 18.23,-40.74 40.74,-40.74z"/>
   <path class="fil3" d="M1586.44 2136.27c22.49,0 40.73,18.23 40.73,40.73 0,22.49 -18.23,40.74 -40.73,40.74 -22.49,0 -40.73,-18.24 -40.73,-40.74 0,-22.49 18.23,-40.73 40.73,-40.73z"/>
   <path class="fil3" d="M1991.57 1498.09c22.5,0 40.74,18.23 40.74,40.73 0,22.49 -18.23,40.73 -40.74,40.73 -22.49,0 -40.73,-18.23 -40.73,-40.73 0,-22.49 18.24,-40.73 40.73,-40.73z"/>
   <path class="fil3" d="M1489.78 1294.61c22.49,0 40.73,18.24 40.73,40.74 0,22.49 -18.24,40.73 -40.73,40.73 -22.5,0 -40.74,-18.24 -40.74,-40.73 0,-22.49 18.23,-40.74 40.74,-40.74z"/>
   <path class="fil3" d="M1677.45 1744.76c22.49,0 40.74,18.23 40.74,40.73 0,22.49 -18.24,40.73 -40.74,40.73 -22.49,0 -40.73,-18.23 -40.73,-40.73 0,-22.49 18.23,-40.73 40.73,-40.73z"/>
   <path class="fil3" d="M2055.16 1860.38c22.49,0 40.74,18.23 40.74,40.74 0,22.49 -18.24,40.73 -40.74,40.73 -22.49,0 -40.73,-18.23 -40.73,-40.73 0,-22.5 18.24,-40.74 40.73,-40.74z"/>
   <path class="fil3" d="M1663.97 1228.3c22.49,0 40.73,18.23 40.73,40.73 0,22.49 -18.23,40.74 -40.73,40.74 -22.49,0 -40.73,-18.24 -40.73,-40.74 0,-22.49 18.23,-40.73 40.73,-40.73z"/>
   <path class="fil3" d="M1696.73 1521.22c22.49,0 40.73,18.23 40.73,40.73 0,22.49 -18.23,40.73 -40.73,40.73 -22.49,0 -40.74,-18.23 -40.74,-40.73 0,-22.49 18.24,-40.73 40.74,-40.73z"/>
   <path class="fil3" d="M1288.19 1540.49c22.49,0 40.73,18.23 40.73,40.73 0,22.49 -18.24,40.73 -40.73,40.73 -22.49,0 -40.74,-18.23 -40.74,-40.73 0,-22.49 18.24,-40.73 40.74,-40.73z"/>
   <path class="fil3" d="M1127.37 1796.21c22.49,0 40.73,18.23 40.73,40.73 0,22.49 -18.24,40.74 -40.73,40.74 -22.49,0 -40.74,-18.24 -40.74,-40.74 0,-22.49 18.24,-40.73 40.74,-40.73z"/>
   <path class="fil3" d="M2093.71 1658.03c22.49,0 40.73,18.24 40.73,40.74 0,22.49 -18.24,40.73 -40.73,40.73 -22.49,0 -40.74,-18.23 -40.74,-40.73 0,-22.49 18.24,-40.74 40.74,-40.74z"/>
   <path class="fil1" d="M1563.6 600.26c34.89,0 63.17,28.29 63.17,63.17 0,34.89 -28.29,63.17 -63.17,63.17 -34.89,0 -63.16,-28.29 -63.16,-63.17 0,-34.89 28.28,-63.17 63.16,-63.17z"/>
   <path class="fil4" d="M1767.42 566.31c34.89,0.05 63.14,28.36 63.09,63.26 -0.05,34.88 -28.37,63.13 -63.25,63.08 -34.89,-0.05 -63.13,-28.37 -63.08,-63.25 0.04,-34.89 28.36,-63.14 63.24,-63.09z"/>
   <path class="fil4" d="M1971.48 575.89c34.88,0.01 63.16,28.29 63.16,63.18 0,34.88 -28.28,63.16 -63.16,63.16 -34.89,0 -63.17,-28.29 -63.17,-63.17 0.01,-34.89 28.29,-63.16 63.17,-63.17z"/>
   <path class="fil4" d="M2168.87 628.44c34.88,-0.05 63.2,28.2 63.24,63.09 0.06,34.88 -28.19,63.2 -63.07,63.24 -34.89,0.05 -63.2,-28.19 -63.25,-63.07 -0.05,-34.9 28.2,-63.22 63.08,-63.26z"/>
   <path class="fil1" d="M2352.92 722.36c34.89,0 63.16,28.29 63.16,63.17 0,34.89 -28.28,63.17 -63.16,63.17 -34.89,0 -63.17,-28.29 -63.17,-63.17 0,-34.89 28.29,-63.17 63.17,-63.17z"/>
   <path class="fil1" d="M1970.58 2674.19c-34.88,0 -63.16,-28.29 -63.16,-63.17 0,-34.89 28.29,-63.16 63.16,-63.16 34.89,0 63.17,28.28 63.17,63.16 0,34.89 -28.29,63.17 -63.17,63.17z"/>
   <path class="fil4" d="M1784.71 2693.97c-34.87,-0.01 -63.15,-28.29 -63.14,-63.17 0.01,-34.9 28.29,-63.17 63.17,-63.15 34.89,0 63.15,28.29 63.15,63.17 -0.01,34.9 -28.29,63.16 -63.18,63.15z"/>
   <path class="fil4" d="M1598.94 2681.53c-34.88,0 -63.16,-28.27 -63.18,-63.15 -0.01,-34.88 28.28,-63.16 63.15,-63.17 34.89,-0.01 63.17,28.27 63.17,63.14 0.01,34.89 -28.26,63.17 -63.14,63.18z"/>
   <path class="fil1" d="M1417.37 2637.15c-34.89,0 -63.17,-28.29 -63.17,-63.17 0,-34.89 28.29,-63.17 63.17,-63.17 34.89,0 63.16,28.29 63.16,63.17 0,34.89 -28.28,63.17 -63.16,63.17z"/>
  </g>
 </g>
</svg>
