<?xml version="1.0" encoding="UTF-8"?>
<!DOCTYPE svg PUBLIC "-//W3C//DTD SVG 1.0//EN" "http://www.w3.org/TR/2001/REC-SVG-20010904/DTD/svg10.dtd">
<!-- Creator: CorelDRAW -->
<svg xmlns="http://www.w3.org/2000/svg" xml:space="preserve" width="19.4973mm" height="21.2257mm" version="1.0" style="shape-rendering:geometricPrecision; text-rendering:geometricPrecision; image-rendering:optimizeQuality; fill-rule:evenodd; clip-rule:evenodd"
viewBox="0 0 435.6 474.21"
 xmlns:xlink="http://www.w3.org/1999/xlink"
 xmlns:xodm="http://www.corel.com/coreldraw/odm/2003">
 <defs>
  <style type="text/css">
   <![CDATA[
    .fil0 {fill:black}
   ]]>
  </style>
 </defs>
 <g id="Layer_x0020_1">
  <metadata id="CorelCorpID_0Corel-Layer"/>
  <path class="fil0" d="M0.14 24.08c0,23.5 -1.68,21.3 6.48,21.3 1.55,6.68 2.71,13.35 9.1,18.68 5.88,4.91 10.83,7.9 18.55,10.17 25.96,7.61 62.19,-3.73 62.19,-28.85l37.97 0 0 -13.89c21.84,0 41.5,-1.74 58.08,17.87 9.68,11.45 13.24,22.61 13.24,43.26l0 351.03 -37.05 0 0 30.57 98.18 0 0 -30.57 -37.05 0 0 -351.03c0,-20.66 3.43,-31.13 12.82,-42.75 16.2,-20.05 36.82,-18.38 58.5,-18.38l0 13.89 37.97 0c0,24.73 34.67,35.87 60.74,29.25 9.31,-2.37 18.22,-7.45 23.84,-15.06 3.88,-5.26 3.67,-7.35 5.26,-14.18 8.16,0 6.48,2.19 6.48,-21.3 0,-7.21 -1.49,-12.45 -4.71,-16.59 -3.06,-3.93 -8.02,-7.49 -14.74,-7.49l-96.33 0c-11.15,0 -7.21,6.64 -19.4,6.53 -3.11,-0.03 -6.2,-0.05 -9.31,-0.05 -21.39,-0.01 -39.02,3.37 -55.2,16.12 -4.38,3.46 -15.69,13.97 -17.05,19.07l-1.85 0c-2.85,-10.65 -25.34,-26.32 -40.16,-31.16 -9.69,-3.16 -18.68,-4.05 -31.16,-4.04 -4.99,0 -13.03,1.11 -16.82,-0.78 -2.86,-1.42 -5.41,-5.71 -12.82,-5.71l-96.32 0c-12.41,0 -19.45,10.8 -19.45,24.08z"/>
 </g>
</svg>
